#!OML:ASF F:\VICON\USERDATA\INSTALL\rory3\rory3.ASF
:FULLY-SPECIFIED
:DEGREES
458
root 3.79437 16.5009 0.330071 13.368 1.04776 3.02187
lowerback 3.62229 0.413511 5.34448
upperback 2.03325 0.705042 -3.28602
thorax 0.177596 0.417868 -6.45057
lowerneck -5.42894 6.40205 1.39898
upperneck 54.0092 9.64574 2.5693
head 24.836 4.14791 3.18421
rclavicle 6.08778e-015 -1.27222e-014
rhumerus -43.2071 19.9597 -102.014
rradius 94.8928
rwrist -53.9328
rhand -0.570539 -34.5414
rfingers 7.12502
rthumb 25.0438 -62.9195
lclavicle 6.08778e-015 -1.27222e-014
lhumerus -19.1451 -22.0461 83.9555
lradius 96.6744
lwrist 74.1453
lhand -22.3676 -20.6726
lfingers 7.12502
lthumb 4.05381 9.26862
rfemur -59.8583 6.40463 14.7104
rtibia 80.5002
rfoot 13.7688 -3.0723
rtoes -21.5813
lfemur -35.623 -5.59856 -31.114
ltibia 47.7878
lfoot -21.6839 18.2417
ltoes 10.0538
459
root 3.79074 16.498 0.333325 13.3503 1.12778 3.08418
lowerback 3.39407 0.594609 5.44462
upperback 2.02561 0.939925 -3.39992
thorax 0.337531 0.542993 -6.63238
lowerneck -4.9822 6.22356 1.87097
upperneck 53.9869 9.30835 2.40289
head 24.708 4.12857 2.90226
rclavicle -1.43622e-014 1.03368e-014
rhumerus -43.4964 19.3561 -102.278
rradius 94.6442
rwrist -53.802
rhand -1.21863 -32.8359
rfingers 7.12502
rthumb 24.4226 -61.2992
lclavicle -1.43622e-014 1.03368e-014
lhumerus -19.6876 -22.8135 84.2849
lradius 96.6393
lwrist 74.617
lhand -22.2886 -20.5902
lfingers 7.12502
lthumb 4.13007 9.34949
rfemur -59.7005 6.42891 14.6449
rtibia 80.4313
rfoot 13.6977 -2.9746
rtoes -22.1997
lfemur -35.6486 -5.72771 -31.1166
ltibia 47.8781
lfoot -21.9119 18.1114
ltoes 10.9629
460
root 3.7907 16.499 0.331869 13.3561 1.26144 3.13661
lowerback 3.48829 -0.0391017 5.09718
upperback 2.38283 0.0874008 -2.96004
thorax 0.517959 0.12387 -5.94286
lowerneck -5.83837 6.8401 0.739368
upperneck 53.9572 10.6684 2.30796
head 24.8849 4.33967 3.37493
rclavicle 5.8393e-015 -1.99779e-014
rhumerus -42.944 21.5879 -102.29
rradius 94.2097
rwrist -53.9686
rhand -1.61202 -32.2956
rfingers 7.12502
rthumb 24.0455 -60.8093
lclavicle 5.8393e-015 -1.99779e-014
lhumerus -19.5173 -20.9045 84.3291
lradius 96.6131
lwrist 75.1989
lhand -22.6916 -20.64
lfingers 7.12502
lthumb 3.74087 9.30688
rfemur -59.5633 6.36847 14.5985
rtibia 80.3571
rfoot 13.5131 -2.8502
rtoes -23.0057
lfemur -35.7008 -5.9461 -31.1041
ltibia 47.9538
lfoot -22.0121 18.0259
ltoes 11.7898
461
root 3.79389 16.4908 0.331071 13.3547 1.43009 3.11118
lowerback 3.35566 0.083751 5.36899
upperback 2.3523 0.252958 -3.04779
thorax 0.587324 0.212333 -6.19568
lowerneck -5.53674 6.68378 0.898838
upperneck 53.9758 10.2352 2.56256
head 24.7538 4.25756 3.38424
rclavicle 5.81445e-015 1.75924e-014
rhumerus -43.1725 21.0752 -102.498
rradius 94.0758
rwrist -53.9524
rhand -1.96692 -32.0655
rfingers 7.12502
rthumb 23.7051 -60.6237
lclavicle 5.81445e-015 1.75924e-014
lhumerus -20.0994 -21.6381 84.6949
lradius 96.7219
lwrist 75.7801
lhand -22.9692 -20.7895
lfingers 7.12502
lthumb 3.47283 9.16194
rfemur -59.4883 6.2496 14.6423
rtibia 80.3537
rfoot 13.17 -2.881
rtoes -23.5138
lfemur -35.6988 -6.02237 -31.0881
ltibia 48.0149
lfoot -21.9433 18.13
ltoes 10.6357
462
root 3.79681 16.4798 0.330171 13.362 1.51061 3.16615
lowerback 3.40212 0.0933521 5.44425
upperback 2.36899 0.269808 -3.06708
thorax 0.582032 0.222154 -6.26004
lowerneck -5.65614 6.66176 0.65682
upperneck 54.0376 10.1027 2.9187
head 24.7836 4.19034 3.62332
rclavicle -3.23025e-016 1.14301e-014
rhumerus -43.3337 21.0285 -102.655
rradius 93.9896
rwrist -53.957
rhand 1.6041 -42.2963
rfingers 7.12502
rthumb 27.1259 -70.3671
lclavicle -3.23025e-016 1.14301e-014
lhumerus -20.5383 -21.8831 84.9831
lradius 96.909
lwrist 76.2398
lhand -23.0478 -20.4071
lfingers 7.12502
lthumb 3.39693 9.54558
rfemur -59.4998 6.19344 14.5663
rtibia 80.3991
rfoot 12.9933 -2.85576
rtoes -23.7884
lfemur -35.7194 -6.02413 -31.1814
ltibia 48.0805
lfoot -21.8719 18.2324
ltoes 9.44949
463
root 3.80195 16.4736 0.330451 13.3212 1.56559 3.25024
lowerback 3.49647 -0.0193457 5.4196
upperback 2.43634 0.122737 -3.02627
thorax 0.576649 0.149424 -6.19895
lowerneck -5.89456 6.74025 0.26347
upperneck 54.1311 10.218 3.19816
head 24.8898 4.16325 3.90762
rclavicle -1.02498e-015 2.59166e-014
rhumerus -43.4379 21.3901 -102.812
rradius 93.8403
rwrist -54.1488
rhand -3.54921 -26.6597
rfingers 7.12502
rthumb 22.1868 -55.4065
lclavicle -1.02498e-015 2.59166e-014
lhumerus -20.8027 -21.5764 85.0742
lradius 96.9862
lwrist 77.0884
lhand -21.8805 -18.3426
lfingers 7.12502
lthumb 4.52414 11.5891
rfemur -59.4166 6.13479 14.4544
rtibia 80.4329
rfoot 12.9224 -2.70107
rtoes -23.7507
lfemur -35.6837 -6.05178 -31.302
ltibia 48.1596
lfoot -21.9343 18.2155
ltoes 9.4437
464
root 3.80645 16.4747 0.330254 13.1963 1.64271 3.15754
lowerback 3.62095 -0.100063 5.55989
upperback 2.50108 0.024266 -2.95312
thorax 0.560079 0.102391 -6.19967
lowerneck -5.95818 6.77162 0.0525366
upperneck 54.236 10.2594 3.3602
head 24.9828 4.13991 4.06573
rclavicle -2.72087e-015 -1.72694e-015
rhumerus -43.5798 21.5889 -102.954
rradius 93.7339
rwrist -54.3749
rhand -2.83164 -27.1441
rfingers 7.12502
rthumb 22.8755 -55.8073
lclavicle -2.72087e-015 -1.72694e-015
lhumerus -21.1862 -21.3364 85.1497
lradius 97.0772
lwrist 78.0317
lhand -19.6841 -16.6519
lfingers 7.12502
lthumb 6.64482 13.2238
rfemur -59.1667 6.13016 14.5676
rtibia 80.406
rfoot 12.7621 -2.79381
rtoes -23.0913
lfemur -35.5855 -6.0945 -31.1941
ltibia 48.2443
lfoot -22.1139 18.0426
ltoes 10.4462
465
root 3.80739 16.4741 0.32823 13.0953 1.67966 3.08446
lowerback 3.7952 -0.145575 5.62798
upperback 2.53857 -0.0263319 -2.8865
thorax 0.494052 0.0760895 -6.16715
lowerneck -6.03202 6.79689 -0.0596016
upperneck 54.4064 10.2982 3.48154
head 25.1874 4.12467 4.19652
rclavicle 4.8842e-015 -5.80824e-015
rhumerus -43.6959 21.7355 -103.079
rradius 93.6203
rwrist -54.4762
rhand 0.73364 -40.5085
rfingers 7.12502
rthumb 26.2929 -68.7064
lclavicle 4.8842e-015 -5.80824e-015
lhumerus -21.6089 -21.4752 85.3991
lradius 97.1582
lwrist 78.2891
lhand -19.6362 -18.1064
lfingers 7.12502
lthumb 6.69104 11.7679
rfemur -59.0148 6.17838 14.6611
rtibia 80.4072
rfoot 12.6098 -2.96365
rtoes -22.5799
lfemur -35.5628 -6.12434 -31.0826
ltibia 48.3414
lfoot -22.2834 17.8509
ltoes 11.2121
466
root 3.80942 16.462 0.32464 13.1136 1.64413 3.18905
lowerback 3.91213 -0.319973 5.43787
upperback 2.56099 -0.259104 -2.77084
thorax 0.417085 -0.0458323 -5.92789
lowerneck -6.17974 7.01824 -0.389029
upperneck 54.497 10.7569 3.51042
head 25.2833 4.20994 4.38361
rclavicle 7.79609e-015 -4.23039e-014
rhumerus -43.79 22.5286 -103.251
rradius 93.4393
rwrist -54.6439
rhand 0.47578 -39.6973
rfingers 7.12502
rthumb 26.046 -67.9317
lclavicle 7.79609e-015 -4.23039e-014
lhumerus -21.8621 -21.353 85.7195
lradius 97.0935
lwrist 77.8428
lhand -21.4953 -19.7361
lfingers 7.12502
lthumb 4.89608 10.1873
rfemur -59.152 6.1638 14.5266
rtibia 80.5287
rfoot 12.4683 -2.93784
rtoes -22.6967
lfemur -35.6405 -6.10332 -31.2221
ltibia 48.4572
lfoot -22.2857 17.9188
ltoes 10.0914
467
root 3.81244 16.4452 0.320265 13.1949 1.61951 3.24291
lowerback 3.86403 -0.188956 5.47057
upperback 2.46331 -0.0850952 -2.84071
thorax 0.36798 0.0379984 -6.02647
lowerneck -5.91452 6.9404 -0.20206
upperneck 54.4609 10.5309 3.5729
head 25.1413 4.19307 4.31232
rclavicle 9.28697e-015 -1.68967e-014
rhumerus -44.0141 22.1979 -103.389
rradius 93.4469
rwrist -54.7487
rhand -0.392923 -39.1609
rfingers 7.12502
rthumb 25.214 -67.5152
lclavicle 9.28697e-015 -1.68967e-014
lhumerus -22.213 -22.1626 86.0549
lradius 96.9821
lwrist 77.7377
lhand -22.1338 -19.6997
lfingers 7.12502
lthumb 4.27959 10.237
rfemur -59.4061 6.10472 14.4485
rtibia 80.6881
rfoot 12.4334 -2.84066
rtoes -22.816
lfemur -35.7994 -5.99013 -31.3317
ltibia 48.5989
lfoot -22.2607 17.935
ltoes 9.0874
468
root 3.81493 16.4309 0.31692 13.2658 1.65152 3.14941
lowerback 3.86415 -0.125445 5.60668
upperback 2.3643 0.0045477 -2.82316
thorax 0.279013 0.0785023 -6.08923
lowerneck -5.60483 6.89483 -0.0628309
upperneck 54.4041 10.4231 3.51946
head 24.9624 4.19946 4.19706
rclavicle -4.57205e-015 -9.56651e-015
rhumerus -44.2476 21.9873 -103.481
rradius 93.5203
rwrist -54.7558
rhand -2.98898 -35.4117
rfingers 7.12502
rthumb 22.7245 -64.0935
lclavicle -4.57205e-015 -9.56651e-015
lhumerus -22.6461 -22.6797 86.3701
lradius 96.8825
lwrist 78.2276
lhand -21.2236 -20.42
lfingers 7.12502
lthumb 5.15841 9.49721
rfemur -59.6047 6.04083 14.5638
rtibia 80.8249
rfoot 12.4857 -2.82274
rtoes -23.1289
lfemur -35.99 -5.81238 -31.2687
ltibia 48.7511
lfoot -22.3186 17.7825
ltoes 8.83293
469
root 3.81786 16.4278 0.314781 13.3354 1.66602 3.06679
lowerback 3.86287 -0.109492 5.65745
upperback 2.3252 0.0277529 -2.7701
thorax 0.242708 0.0879366 -6.06321
lowerneck -5.42935 6.90804 0.0902615
upperneck 54.3608 10.4575 3.38026
head 24.8755 4.24162 4.07357
rclavicle 1.20513e-015 1.1778e-014
rhumerus -44.4243 22.0236 -103.595
rradius 93.4438
rwrist -54.7206
rhand 0.140095 -46.4634
rfingers 7.12502
rthumb 25.7246 -74.7448
lclavicle 1.20513e-015 1.1778e-014
lhumerus -23.0389 -22.9321 86.643
lradius 96.8629
lwrist 78.7616
lhand -20.6993 -20.978
lfingers 7.12502
lthumb 5.66472 8.92628
rfemur -59.7324 5.96395 14.6756
rtibia 80.9014
rfoot 12.5169 -2.92872
rtoes -22.9388
lfemur -36.1166 -5.71655 -31.1936
ltibia 48.8356
lfoot -22.4537 17.6311
ltoes 8.74786
470
root 3.81962 16.4295 0.311789 13.3655 1.71746 3.12589
lowerback 3.911 -0.089732 5.56909
upperback 2.29721 0.0539307 -2.76655
thorax 0.19006 0.0976017 -6.00991
lowerneck -5.31336 6.89552 0.206911
upperneck 54.3552 10.406 3.36788
head 24.8377 4.25256 4.02504
rclavicle 9.31803e-016 5.31749e-015
rhumerus -44.6328 21.8995 -103.699
rradius 93.4292
rwrist -54.6516
rhand 1.36171 -45.7629
rfingers 7.12502
rthumb 26.894 -73.8697
lclavicle 9.31803e-016 5.31749e-015
lhumerus -23.5288 -23.2214 86.9418
lradius 96.9684
lwrist 79.0715
lhand -20.7501 -21.0609
lfingers 7.12502
lthumb 5.61559 8.84471
rfemur -59.8106 5.83254 14.6467
rtibia 80.9527
rfoot 12.6549 -3.00525
rtoes -21.9337
lfemur -36.1151 -5.67876 -31.2482
ltibia 48.8061
lfoot -22.5893 17.3848
ltoes 9.03464
